<?xml version="1.0" encoding="UTF-8"?>
<svg version="1.1" xmlns="http://www.w3.org/2000/svg" width="512" height="512">
<path d="M0,0 L181,0 L181,1 L180,1 L180,4 L179,4 L179,6 L178,6 L178,9 L177,9 L177,11 L176,11 L176,14 L175,14 L175,17 L174,17 L174,19 L173,19 L173,22 L172,22 L172,24 L171,24 L171,27 L170,27 L170,30 L169,30 L169,32 L168,32 L168,35 L167,35 L167,38 L166,38 L166,40 L165,40 L165,43 L164,43 L164,45 L163,45 L163,48 L162,48 L162,50 L161,50 L161,53 L160,53 L160,56 L159,56 L159,58 L158,58 L158,61 L157,61 L157,64 L156,64 L156,66 L155,66 L155,69 L154,69 L154,72 L153,72 L153,74 L152,74 L152,77 L151,77 L151,79 L150,79 L150,82 L149,82 L149,85 L148,85 L148,87 L147,87 L147,90 L146,90 L146,92 L145,92 L145,95 L144,95 L144,98 L143,98 L143,100 L142,100 L142,103 L141,103 L141,105 L140,105 L140,108 L139,108 L139,110 L138,110 L138,113 L137,113 L137,116 L136,116 L136,118 L135,118 L135,121 L134,121 L134,123 L133,123 L133,126 L132,126 L132,128 L131,128 L131,131 L130,131 L130,134 L129,134 L129,136 L128,136 L128,139 L127,139 L127,141 L126,141 L126,144 L125,144 L125,147 L124,147 L124,149 L123,149 L123,152 L122,152 L122,154 L121,154 L121,157 L120,157 L120,160 L119,160 L119,162 L118,162 L118,165 L117,165 L117,167 L116,167 L116,170 L115,170 L115,172 L114,172 L114,175 L113,175 L113,178 L112,178 L112,180 L111,180 L111,183 L110,183 L110,185 L109,185 L109,188 L108,188 L108,190 L107,190 L107,193 L106,193 L106,196 L105,196 L105,198 L104,198 L104,201 L103,201 L103,203 L102,203 L102,206 L101,206 L101,208 L100,208 L100,211 L99,211 L99,213 L98,213 L98,216 L97,216 L97,218 L96,218 L96,221 L95,221 L95,223 L94,223 L94,226 L93,226 L93,229 L92,229 L92,231 L91,231 L91,234 L89,234 L89,231 L88,231 L88,229 L87,229 L87,226 L86,226 L86,223 L85,223 L85,221 L84,221 L84,218 L83,218 L83,216 L82,216 L82,213 L81,213 L81,210 L80,210 L80,208 L79,208 L79,205 L78,205 L78,203 L77,203 L77,200 L76,200 L76,198 L75,198 L75,195 L74,195 L74,193 L73,193 L73,190 L72,190 L72,187 L71,187 L71,185 L70,185 L70,182 L69,182 L69,180 L68,180 L68,177 L67,177 L67,175 L66,175 L66,172 L65,172 L65,169 L64,169 L64,167 L63,167 L63,164 L62,164 L62,162 L61,162 L61,159 L60,159 L60,156 L59,156 L59,154 L58,154 L58,151 L57,151 L57,149 L56,149 L56,146 L55,146 L55,144 L54,144 L54,141 L53,141 L53,139 L52,139 L52,136 L51,136 L51,133 L50,133 L50,131 L49,131 L49,128 L48,128 L48,125 L47,125 L47,123 L46,123 L46,120 L45,120 L45,118 L44,118 L44,115 L43,115 L43,112 L42,112 L42,110 L41,110 L41,107 L40,107 L40,104 L39,104 L39,102 L38,102 L38,99 L37,99 L37,97 L36,97 L36,94 L35,94 L35,92 L34,92 L34,89 L33,89 L33,87 L32,87 L32,84 L31,84 L31,81 L30,81 L30,79 L29,79 L29,76 L28,76 L28,74 L27,74 L27,71 L26,71 L26,68 L25,68 L25,66 L24,66 L24,63 L23,63 L23,61 L22,61 L22,58 L21,58 L21,55 L20,55 L20,53 L19,53 L19,50 L18,50 L18,48 L17,48 L17,45 L16,45 L16,42 L15,42 L15,40 L14,40 L14,37 L13,37 L13,35 L12,35 L12,32 L11,32 L11,29 L10,29 L10,27 L9,27 L9,24 L8,24 L8,21 L7,21 L7,19 L6,19 L6,16 L5,16 L5,14 L4,14 L4,11 L3,11 L3,8 L2,8 L2,6 L1,6 L1,3 L0,3 Z " fill="#0303F3" transform="translate(166,202)"/>
<path d="M0,0 L6,0 L6,1 L10,1 L10,0 L18,0 L18,1 L21,1 L21,0 L22,0 L22,1 L23,1 L23,0 L35,0 L35,1 L124,1 L124,2 L123,2 L123,3 L122,3 L122,4 L121,4 L121,6 L120,6 L120,7 L119,7 L119,8 L118,8 L118,9 L117,9 L117,10 L116,10 L116,11 L115,11 L115,12 L114,12 L114,14 L113,14 L113,15 L112,15 L112,16 L111,16 L111,17 L110,17 L110,18 L109,18 L109,19 L108,19 L108,20 L107,20 L107,21 L106,21 L106,22 L105,22 L105,23 L104,23 L104,25 L103,25 L103,26 L102,26 L102,27 L101,27 L101,28 L100,28 L100,29 L99,29 L99,30 L98,30 L98,31 L97,31 L97,32 L96,32 L96,34 L95,34 L95,35 L94,35 L94,36 L93,36 L93,37 L92,37 L92,38 L91,38 L91,39 L90,39 L90,40 L89,40 L89,41 L88,41 L88,42 L87,42 L87,44 L86,44 L86,45 L85,45 L85,46 L84,46 L84,47 L83,47 L83,48 L82,48 L82,49 L81,49 L81,50 L80,50 L80,51 L79,51 L79,52 L78,52 L78,54 L77,54 L77,55 L76,55 L76,56 L75,56 L75,57 L74,57 L74,58 L73,58 L73,59 L72,59 L72,60 L71,60 L71,61 L70,61 L70,62 L69,62 L69,64 L68,64 L68,65 L67,65 L67,66 L66,66 L66,67 L65,67 L65,68 L64,68 L64,69 L63,69 L63,70 L62,70 L62,71 L61,71 L61,72 L60,72 L60,73 L59,73 L59,75 L58,75 L58,76 L57,76 L57,77 L56,77 L56,78 L55,78 L55,79 L54,79 L54,80 L53,80 L53,81 L52,81 L52,82 L51,82 L51,83 L50,83 L50,85 L49,85 L49,86 L48,86 L48,87 L47,87 L47,88 L46,88 L46,89 L45,89 L45,90 L44,90 L44,91 L43,91 L43,92 L42,92 L42,93 L41,93 L41,94 L40,94 L40,96 L39,96 L39,97 L38,97 L38,98 L37,98 L37,99 L36,99 L36,100 L35,100 L35,101 L34,101 L34,102 L33,102 L33,103 L32,103 L32,104 L31,104 L31,106 L30,106 L30,107 L29,107 L29,108 L28,108 L28,109 L27,109 L27,110 L26,110 L26,111 L25,111 L25,112 L24,112 L24,113 L23,113 L23,114 L22,114 L22,115 L21,115 L21,117 L20,117 L20,118 L19,118 L19,119 L18,119 L18,120 L17,120 L17,121 L16,121 L16,122 L15,122 L15,123 L14,123 L14,124 L13,124 L13,125 L12,125 L12,126 L11,126 L11,128 L10,128 L10,129 L9,129 L9,130 L8,130 L8,131 L7,131 L7,132 L6,132 L6,133 L5,133 L5,134 L4,134 L4,135 L3,135 L3,136 L2,136 L2,137 L1,137 L1,139 L0,139 L0,140 L-1,140 L-1,141 L-2,141 L-2,142 L-3,142 L-3,143 L-4,143 L-4,144 L-5,144 L-5,145 L-6,145 L-6,146 L-7,146 L-7,147 L-8,147 L-8,149 L-9,149 L-9,150 L-10,150 L-10,151 L-11,151 L-11,152 L-12,152 L-12,153 L-13,153 L-13,154 L-14,154 L-14,155 L-15,155 L-15,156 L-16,156 L-16,157 L-17,157 L-17,159 L-18,159 L-18,160 L-19,160 L-19,161 L-20,161 L-20,162 L-21,162 L-21,163 L-22,163 L-22,164 L-23,164 L-23,165 L-24,165 L-24,166 L-25,166 L-25,167 L-26,167 L-26,169 L-27,169 L-27,170 L-28,170 L-28,171 L-29,171 L-29,172 L-30,172 L-30,173 L-31,173 L-31,174 L-32,174 L-32,175 L-33,175 L-33,176 L-34,176 L-34,177 L-35,177 L-35,179 L-36,179 L-36,180 L-37,180 L-37,181 L-38,181 L-38,182 L-39,182 L-39,183 L-40,183 L-40,184 L-41,184 L-41,185 L-42,185 L-42,186 L-43,186 L-43,187 L-44,187 L-44,188 L-45,188 L-45,190 L-46,190 L-46,191 L-47,191 L-47,192 L-48,192 L-48,193 L-49,193 L-49,194 L-50,194 L-50,195 L-51,195 L-51,196 L-52,196 L-52,197 L-53,197 L-53,198 L-54,198 L-54,199 L-55,199 L-55,201 L-56,201 L-56,202 L-57,202 L-57,203 L-58,203 L-58,204 L-59,204 L-59,205 L-60,205 L-60,206 L-61,206 L-61,207 L-62,207 L-62,208 L-63,208 L-63,209 L-64,209 L-64,210 L-65,210 L-65,211 L-66,211 L-66,213 L-67,213 L-67,214 L-68,214 L-68,215 L-69,215 L-69,216 L-70,216 L-70,217 L-71,217 L-71,218 L-72,218 L-72,219 L-73,219 L-73,220 L-74,220 L-74,221 L-75,221 L-75,223 L-76,223 L-76,224 L-77,224 L-77,225 L-78,225 L-78,226 L-79,226 L-79,227 L-80,227 L-80,228 L-81,228 L-81,229 L-82,229 L-82,230 L-83,230 L-83,231 L-84,231 L-84,232 L-85,232 L-85,233 L-86,233 L-86,235 L-87,235 L-87,236 L-88,236 L-88,237 L-89,237 L-89,238 L-90,238 L-90,239 L-91,239 L-91,240 L-92,240 L-92,241 L-93,241 L-93,242 L-94,242 L-94,240 L-93,240 L-93,238 L-92,238 L-92,235 L-91,235 L-91,232 L-90,232 L-90,230 L-89,230 L-89,227 L-88,227 L-88,225 L-87,225 L-87,222 L-86,222 L-86,220 L-85,220 L-85,217 L-84,217 L-84,215 L-83,215 L-83,212 L-82,212 L-82,210 L-81,210 L-81,207 L-80,207 L-80,205 L-79,205 L-79,202 L-78,202 L-78,199 L-77,199 L-77,197 L-76,197 L-76,194 L-75,194 L-75,192 L-74,192 L-74,189 L-73,189 L-73,186 L-72,186 L-72,184 L-71,184 L-71,181 L-70,181 L-70,179 L-69,179 L-69,176 L-68,176 L-68,174 L-67,174 L-67,171 L-66,171 L-66,168 L-65,168 L-65,166 L-64,166 L-64,163 L-63,163 L-63,161 L-62,161 L-62,158 L-61,158 L-61,155 L-60,155 L-60,153 L-59,153 L-59,150 L-58,150 L-58,147 L-57,147 L-57,145 L-56,145 L-56,142 L-55,142 L-55,140 L-54,140 L-54,137 L-53,137 L-53,135 L-52,135 L-52,132 L-51,132 L-51,129 L-50,129 L-50,127 L-49,127 L-49,124 L-48,124 L-48,122 L-47,122 L-47,119 L-46,119 L-46,117 L-45,117 L-45,114 L-44,114 L-44,111 L-43,111 L-43,109 L-42,109 L-42,106 L-41,106 L-41,104 L-40,104 L-40,101 L-39,101 L-39,98 L-38,98 L-38,96 L-37,96 L-37,93 L-36,93 L-36,90 L-35,90 L-35,88 L-34,88 L-34,85 L-33,85 L-33,83 L-32,83 L-32,80 L-31,80 L-31,78 L-30,78 L-30,75 L-29,75 L-29,72 L-28,72 L-28,70 L-27,70 L-27,67 L-26,67 L-26,65 L-25,65 L-25,62 L-24,62 L-24,59 L-23,59 L-23,57 L-22,57 L-22,54 L-21,54 L-21,52 L-20,52 L-20,49 L-19,49 L-19,46 L-18,46 L-18,44 L-17,44 L-17,41 L-16,41 L-16,39 L-15,39 L-15,36 L-14,36 L-14,33 L-13,33 L-13,31 L-12,31 L-12,28 L-11,28 L-11,26 L-10,26 L-10,23 L-9,23 L-9,20 L-8,20 L-8,18 L-7,18 L-7,15 L-6,15 L-6,13 L-5,13 L-5,10 L-4,10 L-4,8 L-3,8 L-3,5 L-2,5 L-2,2 L-1,2 L-1,1 L0,1 Z " fill="#0405F0" transform="translate(364,201)"/>
<path d="M0,0 L125,0 L125,1 L126,1 L126,4 L127,4 L127,6 L128,6 L128,9 L129,9 L129,11 L130,11 L130,14 L131,14 L131,16 L132,16 L132,19 L133,19 L133,22 L134,22 L134,24 L135,24 L135,27 L136,27 L136,29 L137,29 L137,32 L138,32 L138,35 L139,35 L139,37 L140,37 L140,40 L141,40 L141,42 L142,42 L142,45 L143,45 L143,47 L144,47 L144,50 L145,50 L145,53 L146,53 L146,55 L147,55 L147,58 L148,58 L148,60 L149,60 L149,63 L150,63 L150,66 L151,66 L151,68 L152,68 L152,71 L153,71 L153,73 L154,73 L154,76 L155,76 L155,79 L156,79 L156,81 L157,81 L157,84 L158,84 L158,86 L159,86 L159,89 L160,89 L160,92 L161,92 L161,94 L162,94 L162,97 L163,97 L163,99 L164,99 L164,102 L165,102 L165,105 L166,105 L166,107 L167,107 L167,110 L168,110 L168,112 L169,112 L169,115 L170,115 L170,118 L171,118 L171,120 L172,120 L172,123 L173,123 L173,125 L174,125 L174,128 L175,128 L175,130 L176,130 L176,133 L177,133 L177,136 L178,136 L178,138 L179,138 L179,141 L180,141 L180,143 L181,143 L181,146 L182,146 L182,149 L183,149 L183,151 L184,151 L184,154 L185,154 L185,156 L186,156 L186,159 L187,159 L187,161 L188,161 L188,164 L189,164 L189,167 L190,167 L190,169 L191,169 L191,172 L192,172 L192,175 L193,175 L193,177 L194,177 L194,180 L195,180 L195,182 L196,182 L196,185 L197,185 L197,187 L198,187 L198,190 L199,190 L199,192 L200,192 L200,195 L201,195 L201,198 L202,198 L202,201 L203,201 L203,203 L204,203 L204,206 L205,206 L205,208 L206,208 L206,211 L207,211 L207,213 L208,213 L208,216 L209,216 L209,218 L210,218 L210,221 L211,221 L211,223 L212,223 L212,226 L213,226 L213,229 L214,229 L214,231 L215,231 L215,234 L216,234 L216,236 L217,236 L217,239 L218,239 L218,241 L217,241 L217,240 L216,240 L216,239 L215,239 L215,238 L214,238 L214,237 L213,237 L213,235 L212,235 L212,234 L211,234 L211,233 L210,233 L210,232 L209,232 L209,231 L208,231 L208,230 L207,230 L207,229 L206,229 L206,228 L205,228 L205,227 L204,227 L204,225 L203,225 L203,224 L202,224 L202,223 L201,223 L201,222 L200,222 L200,221 L199,221 L199,220 L198,220 L198,219 L197,219 L197,218 L196,218 L196,217 L195,217 L195,216 L194,216 L194,214 L193,214 L193,213 L192,213 L192,212 L191,212 L191,211 L190,211 L190,210 L189,210 L189,209 L188,209 L188,208 L187,208 L187,207 L186,207 L186,206 L185,206 L185,205 L184,205 L184,203 L183,203 L183,202 L182,202 L182,201 L181,201 L181,200 L180,200 L180,199 L179,199 L179,198 L178,198 L178,197 L177,197 L177,196 L176,196 L176,195 L175,195 L175,194 L174,194 L174,192 L173,192 L173,191 L172,191 L172,190 L171,190 L171,189 L170,189 L170,188 L169,188 L169,187 L168,187 L168,186 L167,186 L167,185 L166,185 L166,184 L165,184 L165,183 L164,183 L164,181 L163,181 L163,180 L162,180 L162,179 L161,179 L161,178 L160,178 L160,177 L159,177 L159,176 L158,176 L158,175 L157,175 L157,174 L156,174 L156,173 L155,173 L155,172 L154,172 L154,170 L153,170 L153,169 L152,169 L152,168 L151,168 L151,167 L150,167 L150,166 L149,166 L149,165 L148,165 L148,164 L147,164 L147,163 L146,163 L146,162 L145,162 L145,160 L144,160 L144,159 L143,159 L143,158 L142,158 L142,157 L141,157 L141,156 L140,156 L140,155 L139,155 L139,154 L138,154 L138,153 L137,153 L137,152 L136,152 L136,150 L135,150 L135,149 L134,149 L134,148 L133,148 L133,147 L132,147 L132,146 L131,146 L131,145 L130,145 L130,144 L129,144 L129,143 L128,143 L128,142 L127,142 L127,141 L126,141 L126,139 L125,139 L125,138 L124,138 L124,137 L123,137 L123,136 L122,136 L122,135 L121,135 L121,134 L120,134 L120,133 L119,133 L119,132 L118,132 L118,131 L117,131 L117,129 L116,129 L116,128 L115,128 L115,127 L114,127 L114,126 L113,126 L113,125 L112,125 L112,124 L111,124 L111,123 L110,123 L110,122 L109,122 L109,121 L108,121 L108,120 L107,120 L107,118 L106,118 L106,117 L105,117 L105,116 L104,116 L104,115 L103,115 L103,114 L102,114 L102,113 L101,113 L101,112 L100,112 L100,111 L99,111 L99,110 L98,110 L98,109 L97,109 L97,107 L96,107 L96,106 L95,106 L95,105 L94,105 L94,104 L93,104 L93,103 L92,103 L92,102 L91,102 L91,101 L90,101 L90,100 L89,100 L89,99 L88,99 L88,97 L87,97 L87,96 L86,96 L86,95 L85,95 L85,94 L84,94 L84,93 L83,93 L83,92 L82,92 L82,91 L81,91 L81,90 L80,90 L80,89 L79,89 L79,87 L78,87 L78,86 L77,86 L77,85 L76,85 L76,84 L75,84 L75,83 L74,83 L74,82 L73,82 L73,81 L72,81 L72,80 L71,80 L71,79 L70,79 L70,78 L69,78 L69,77 L68,77 L68,75 L67,75 L67,74 L66,74 L66,73 L65,73 L65,72 L64,72 L64,71 L63,71 L63,70 L62,70 L62,69 L61,69 L61,68 L60,68 L60,67 L59,67 L59,65 L58,65 L58,64 L57,64 L57,63 L56,63 L56,62 L55,62 L55,61 L54,61 L54,60 L53,60 L53,59 L52,59 L52,58 L51,58 L51,57 L50,57 L50,55 L49,55 L49,54 L48,54 L48,53 L47,53 L47,52 L46,52 L46,51 L45,51 L45,50 L44,50 L44,49 L43,49 L43,48 L42,48 L42,47 L41,47 L41,46 L40,46 L40,45 L39,45 L39,43 L38,43 L38,42 L37,42 L37,41 L36,41 L36,40 L35,40 L35,39 L34,39 L34,38 L33,38 L33,37 L32,37 L32,36 L31,36 L31,35 L30,35 L30,33 L29,33 L29,32 L28,32 L28,31 L27,31 L27,30 L26,30 L26,29 L25,29 L25,28 L24,28 L24,27 L23,27 L23,26 L22,26 L22,25 L21,25 L21,23 L20,23 L20,22 L19,22 L19,21 L18,21 L18,20 L17,20 L17,19 L16,19 L16,18 L15,18 L15,17 L14,17 L14,16 L13,16 L13,15 L12,15 L12,14 L11,14 L11,12 L10,12 L10,11 L9,11 L9,10 L8,10 L8,9 L7,9 L7,8 L6,8 L6,7 L5,7 L5,6 L4,6 L4,5 L3,5 L3,4 L2,4 L2,2 L1,2 L1,1 L0,1 Z " fill="#0404F2" transform="translate(24,202)"/>
<path d="M0,0 L1,0 L1,1 L2,1 L2,3 L3,3 L3,4 L4,4 L4,5 L5,5 L5,6 L6,6 L6,7 L7,7 L7,9 L8,9 L8,10 L9,10 L9,11 L10,11 L10,12 L11,12 L11,14 L12,14 L12,15 L13,15 L13,16 L14,16 L14,17 L15,17 L15,18 L16,18 L16,20 L17,20 L17,21 L18,21 L18,22 L19,22 L19,23 L20,23 L20,24 L21,24 L21,26 L22,26 L22,27 L23,27 L23,28 L24,28 L24,29 L25,29 L25,30 L26,30 L26,31 L27,31 L27,33 L28,33 L28,34 L29,34 L29,35 L30,35 L30,36 L31,36 L31,37 L32,37 L32,38 L33,38 L33,40 L34,40 L34,41 L35,41 L35,42 L36,42 L36,43 L37,43 L37,44 L38,44 L38,46 L39,46 L39,47 L40,47 L40,48 L41,48 L41,49 L42,49 L42,50 L43,50 L43,51 L44,51 L44,53 L45,53 L45,54 L46,54 L46,55 L47,55 L47,56 L48,56 L48,58 L49,58 L49,59 L50,59 L50,60 L51,60 L51,61 L52,61 L52,62 L53,62 L53,63 L54,63 L54,65 L55,65 L55,66 L56,66 L56,67 L57,67 L57,68 L58,68 L58,69 L59,69 L59,71 L60,71 L60,72 L61,72 L61,73 L62,73 L62,74 L63,74 L63,75 L64,75 L64,77 L65,77 L65,78 L66,78 L66,79 L67,79 L67,80 L68,80 L68,81 L69,81 L69,83 L70,83 L70,84 L71,84 L71,85 L72,85 L72,86 L73,86 L73,87 L74,87 L74,89 L75,89 L75,90 L76,90 L76,91 L77,91 L77,92 L78,92 L78,93 L79,93 L79,94 L80,94 L80,96 L81,96 L81,97 L82,97 L82,98 L83,98 L83,99 L84,99 L84,100 L85,100 L85,102 L86,102 L86,103 L87,103 L87,104 L88,104 L88,105 L89,105 L89,107 L-88,107 L-88,106 L-89,106 L-89,105 L-88,105 L-88,104 L-87,104 L-87,103 L-86,103 L-86,102 L-85,102 L-85,101 L-84,101 L-84,99 L-83,99 L-83,98 L-82,98 L-82,97 L-81,97 L-81,96 L-80,96 L-80,95 L-79,95 L-79,93 L-78,93 L-78,92 L-77,92 L-77,91 L-76,91 L-76,90 L-75,90 L-75,89 L-74,89 L-74,88 L-73,88 L-73,86 L-72,86 L-72,85 L-71,85 L-71,84 L-70,84 L-70,83 L-69,83 L-69,81 L-68,81 L-68,80 L-67,80 L-67,79 L-66,79 L-66,78 L-65,78 L-65,77 L-64,77 L-64,76 L-63,76 L-63,74 L-62,74 L-62,73 L-61,73 L-61,72 L-60,72 L-60,71 L-59,71 L-59,70 L-58,70 L-58,68 L-57,68 L-57,67 L-56,67 L-56,66 L-55,66 L-55,65 L-54,65 L-54,64 L-53,64 L-53,62 L-52,62 L-52,61 L-51,61 L-51,60 L-50,60 L-50,59 L-49,59 L-49,58 L-48,58 L-48,56 L-47,56 L-47,55 L-46,55 L-46,54 L-45,54 L-45,53 L-44,53 L-44,52 L-43,52 L-43,50 L-42,50 L-42,49 L-41,49 L-41,48 L-40,48 L-40,47 L-39,47 L-39,46 L-38,46 L-38,44 L-37,44 L-37,43 L-36,43 L-36,42 L-35,42 L-35,41 L-34,41 L-34,40 L-33,40 L-33,38 L-32,38 L-32,37 L-31,37 L-31,36 L-30,36 L-30,35 L-29,35 L-29,34 L-28,34 L-28,32 L-27,32 L-27,31 L-26,31 L-26,30 L-25,30 L-25,29 L-24,29 L-24,28 L-23,28 L-23,26 L-22,26 L-22,25 L-21,25 L-21,24 L-20,24 L-20,23 L-19,23 L-19,22 L-18,22 L-18,21 L-17,21 L-17,19 L-16,19 L-16,18 L-15,18 L-15,17 L-14,17 L-14,16 L-13,16 L-13,14 L-12,14 L-12,13 L-11,13 L-11,12 L-10,12 L-10,11 L-9,11 L-9,10 L-8,10 L-8,9 L-7,9 L-7,7 L-6,7 L-6,6 L-5,6 L-5,5 L-4,5 L-4,4 L-3,4 L-3,3 L-2,3 L-2,2 L-1,2 L-1,1 L0,1 Z " fill="#0303F4" transform="translate(256,80)"/>
<path d="M0,0 L2,0 L2,1 L3,1 L3,2 L4,2 L4,4 L5,4 L5,5 L6,5 L6,6 L7,6 L7,8 L8,8 L8,9 L9,9 L9,10 L10,10 L10,11 L11,11 L11,13 L12,13 L12,14 L13,14 L13,15 L14,15 L14,17 L15,17 L15,18 L16,18 L16,19 L17,19 L17,20 L18,20 L18,22 L19,22 L19,23 L20,23 L20,24 L21,24 L21,26 L22,26 L22,27 L23,27 L23,28 L24,28 L24,29 L25,29 L25,31 L26,31 L26,32 L27,32 L27,33 L28,33 L28,35 L29,35 L29,36 L30,36 L30,37 L31,37 L31,38 L32,38 L32,40 L33,40 L33,41 L34,41 L34,42 L35,42 L35,43 L36,43 L36,45 L37,45 L37,46 L38,46 L38,47 L39,47 L39,49 L40,49 L40,50 L41,50 L41,51 L42,51 L42,53 L43,53 L43,54 L44,54 L44,55 L45,55 L45,57 L46,57 L46,58 L47,58 L47,59 L48,59 L48,60 L49,60 L49,62 L50,62 L50,63 L51,63 L51,64 L52,64 L52,66 L53,66 L53,67 L54,67 L54,68 L55,68 L55,69 L56,69 L56,71 L57,71 L57,72 L58,72 L58,73 L59,73 L59,74 L60,74 L60,76 L61,76 L61,77 L62,77 L62,78 L63,78 L63,79 L64,79 L64,81 L65,81 L65,82 L66,82 L66,83 L67,83 L67,85 L68,85 L68,86 L69,86 L69,87 L70,87 L70,89 L71,89 L71,90 L72,90 L72,91 L73,91 L73,92 L74,92 L74,94 L75,94 L75,95 L76,95 L76,96 L77,96 L77,98 L78,98 L78,99 L79,99 L79,100 L80,100 L80,101 L81,101 L81,103 L82,103 L82,104 L83,104 L83,105 L84,105 L84,106 L85,106 L85,108 L83,108 L83,109 L-28,109 L-28,108 L-34,108 L-34,109 L-35,109 L-35,105 L-34,105 L-34,102 L-33,102 L-33,100 L-32,100 L-32,96 L-31,96 L-31,93 L-30,93 L-30,90 L-29,90 L-29,87 L-28,87 L-28,84 L-27,84 L-27,82 L-26,82 L-26,78 L-25,78 L-25,76 L-24,76 L-24,73 L-23,73 L-23,70 L-22,70 L-22,66 L-21,66 L-21,63 L-20,63 L-20,60 L-19,60 L-19,57 L-18,57 L-18,54 L-17,54 L-17,51 L-16,51 L-16,48 L-15,48 L-15,45 L-14,45 L-14,42 L-13,42 L-13,39 L-12,39 L-12,36 L-11,36 L-11,33 L-10,33 L-10,30 L-9,30 L-9,27 L-8,27 L-8,24 L-7,24 L-7,21 L-6,21 L-6,18 L-5,18 L-5,15 L-4,15 L-4,11 L-3,11 L-3,8 L-2,8 L-2,5 L-1,5 L-1,3 L0,3 Z " fill="#0304F0" transform="translate(404,78)"/>
<path d="M0,0 L2,0 L2,2 L3,2 L3,5 L4,5 L4,8 L5,8 L5,11 L6,11 L6,14 L7,14 L7,17 L8,17 L8,20 L9,20 L9,23 L10,23 L10,26 L11,26 L11,29 L12,29 L12,33 L13,33 L13,35 L14,35 L14,39 L15,39 L15,41 L16,41 L16,45 L17,45 L17,48 L18,48 L18,51 L19,51 L19,54 L20,54 L20,57 L21,57 L21,60 L22,60 L22,63 L23,63 L23,66 L24,66 L24,70 L25,70 L25,73 L26,73 L26,76 L27,76 L27,79 L28,79 L28,82 L29,82 L29,84 L30,84 L30,88 L31,88 L31,90 L32,90 L32,94 L33,94 L33,97 L34,97 L34,100 L35,100 L35,103 L36,103 L36,106 L37,106 L37,108 L28,108 L28,109 L-83,109 L-83,106 L-82,106 L-82,105 L-81,105 L-81,104 L-80,104 L-80,102 L-79,102 L-79,101 L-78,101 L-78,100 L-77,100 L-77,99 L-76,99 L-76,97 L-75,97 L-75,96 L-74,96 L-74,95 L-73,95 L-73,94 L-72,94 L-72,92 L-71,92 L-71,91 L-70,91 L-70,90 L-69,90 L-69,89 L-68,89 L-68,87 L-67,87 L-67,86 L-66,86 L-66,85 L-65,85 L-65,83 L-64,83 L-64,82 L-63,82 L-63,81 L-62,81 L-62,80 L-61,80 L-61,78 L-60,78 L-60,77 L-59,77 L-59,76 L-58,76 L-58,75 L-57,75 L-57,73 L-56,73 L-56,72 L-55,72 L-55,71 L-54,71 L-54,69 L-53,69 L-53,68 L-52,68 L-52,67 L-51,67 L-51,66 L-50,66 L-50,64 L-49,64 L-49,63 L-48,63 L-48,62 L-47,62 L-47,60 L-46,60 L-46,59 L-45,59 L-45,58 L-44,58 L-44,57 L-43,57 L-43,55 L-42,55 L-42,54 L-41,54 L-41,53 L-40,53 L-40,51 L-39,51 L-39,50 L-38,50 L-38,49 L-37,49 L-37,48 L-36,48 L-36,46 L-35,46 L-35,45 L-34,45 L-34,44 L-33,44 L-33,42 L-32,42 L-32,41 L-31,41 L-31,40 L-30,40 L-30,39 L-29,39 L-29,37 L-28,37 L-28,36 L-27,36 L-27,35 L-26,35 L-26,34 L-25,34 L-25,32 L-24,32 L-24,31 L-23,31 L-23,30 L-22,30 L-22,29 L-21,29 L-21,27 L-20,27 L-20,26 L-19,26 L-19,25 L-18,25 L-18,23 L-17,23 L-17,22 L-16,22 L-16,21 L-15,21 L-15,20 L-14,20 L-14,18 L-13,18 L-13,17 L-12,17 L-12,16 L-11,16 L-11,14 L-10,14 L-10,13 L-9,13 L-9,12 L-8,12 L-8,11 L-7,11 L-7,9 L-6,9 L-6,8 L-5,8 L-5,7 L-4,7 L-4,5 L-3,5 L-3,4 L-2,4 L-2,3 L-1,3 L-1,2 L0,2 Z " fill="#0304F2" transform="translate(106,78)"/>
<path d="M0,0 L124,0 L124,1 L123,1 L123,2 L122,2 L122,4 L121,4 L121,5 L120,5 L120,6 L119,6 L119,7 L118,7 L118,9 L117,9 L117,10 L116,10 L116,11 L115,11 L115,12 L114,12 L114,13 L113,13 L113,15 L112,15 L112,16 L111,16 L111,17 L110,17 L110,18 L109,18 L109,19 L108,19 L108,21 L107,21 L107,22 L106,22 L106,23 L105,23 L105,24 L104,24 L104,25 L103,25 L103,26 L102,26 L102,28 L101,28 L101,29 L100,29 L100,30 L99,30 L99,31 L98,31 L98,32 L97,32 L97,34 L96,34 L96,35 L95,35 L95,36 L94,36 L94,37 L93,37 L93,38 L92,38 L92,40 L91,40 L91,41 L90,41 L90,42 L89,42 L89,43 L88,43 L88,44 L87,44 L87,46 L86,46 L86,47 L85,47 L85,48 L84,48 L84,49 L83,49 L83,50 L82,50 L82,52 L81,52 L81,53 L80,53 L80,54 L79,54 L79,55 L78,55 L78,56 L77,56 L77,58 L76,58 L76,59 L75,59 L75,60 L74,60 L74,61 L73,61 L73,62 L72,62 L72,64 L71,64 L71,65 L70,65 L70,66 L69,66 L69,67 L68,67 L68,68 L67,68 L67,69 L66,69 L66,71 L65,71 L65,72 L64,72 L64,73 L63,73 L63,74 L62,74 L62,75 L61,75 L61,77 L60,77 L60,78 L59,78 L59,79 L58,79 L58,80 L57,80 L57,81 L56,81 L56,82 L55,82 L55,84 L54,84 L54,85 L53,85 L53,86 L52,86 L52,87 L51,87 L51,88 L50,88 L50,90 L49,90 L49,91 L48,91 L48,92 L47,92 L47,93 L46,93 L46,95 L45,95 L45,96 L44,96 L44,97 L43,97 L43,98 L42,98 L42,99 L41,99 L41,100 L40,100 L40,102 L39,102 L39,103 L38,103 L38,104 L37,104 L37,105 L36,105 L36,106 L34,106 L34,103 L33,103 L33,100 L32,100 L32,97 L31,97 L31,94 L30,94 L30,91 L29,91 L29,88 L28,88 L28,85 L27,85 L27,82 L26,82 L26,79 L25,79 L25,76 L24,76 L24,73 L23,73 L23,70 L22,70 L22,66 L21,66 L21,63 L20,63 L20,60 L19,60 L19,57 L18,57 L18,54 L17,54 L17,51 L16,51 L16,48 L15,48 L15,45 L14,45 L14,42 L13,42 L13,39 L12,39 L12,36 L11,36 L11,33 L10,33 L10,30 L9,30 L9,27 L8,27 L8,24 L7,24 L7,20 L6,20 L6,17 L5,17 L5,14 L4,14 L4,11 L3,11 L3,8 L2,8 L2,5 L1,5 L1,2 L0,2 Z " fill="#0404EF" transform="translate(121,69)"/>
<path d="M0,0 L124,0 L124,3 L123,3 L123,6 L122,6 L122,9 L121,9 L121,12 L120,12 L120,15 L119,15 L119,18 L118,18 L118,21 L117,21 L117,24 L116,24 L116,27 L115,27 L115,30 L114,30 L114,33 L113,33 L113,36 L112,36 L112,39 L111,39 L111,42 L110,42 L110,45 L109,45 L109,49 L108,49 L108,52 L107,52 L107,55 L106,55 L106,58 L105,58 L105,61 L104,61 L104,64 L103,64 L103,67 L102,67 L102,70 L101,70 L101,73 L100,73 L100,76 L99,76 L99,79 L98,79 L98,82 L97,82 L97,85 L96,85 L96,88 L95,88 L95,91 L94,91 L94,94 L93,94 L93,97 L92,97 L92,100 L91,100 L91,103 L90,103 L90,106 L88,106 L88,105 L87,105 L87,104 L86,104 L86,102 L85,102 L85,101 L84,101 L84,100 L83,100 L83,99 L82,99 L82,98 L81,98 L81,97 L80,97 L80,96 L79,96 L79,94 L78,94 L78,93 L77,93 L77,92 L76,92 L76,91 L75,91 L75,89 L74,89 L74,88 L73,88 L73,87 L72,87 L72,86 L71,86 L71,85 L70,85 L70,83 L69,83 L69,82 L68,82 L68,81 L67,81 L67,80 L66,80 L66,79 L65,79 L65,77 L64,77 L64,76 L63,76 L63,75 L62,75 L62,74 L61,74 L61,73 L60,73 L60,72 L59,72 L59,70 L58,70 L58,69 L57,69 L57,68 L56,68 L56,67 L55,67 L55,66 L54,66 L54,64 L53,64 L53,63 L52,63 L52,62 L51,62 L51,61 L50,61 L50,60 L49,60 L49,58 L48,58 L48,57 L47,57 L47,56 L46,56 L46,55 L45,55 L45,54 L44,54 L44,52 L43,52 L43,51 L42,51 L42,50 L41,50 L41,49 L40,49 L40,48 L39,48 L39,46 L38,46 L38,45 L37,45 L37,44 L36,44 L36,43 L35,43 L35,42 L34,42 L34,41 L33,41 L33,39 L32,39 L32,38 L31,38 L31,37 L30,37 L30,36 L29,36 L29,34 L28,34 L28,33 L27,33 L27,32 L26,32 L26,31 L25,31 L25,30 L24,30 L24,29 L23,29 L23,27 L22,27 L22,26 L21,26 L21,25 L20,25 L20,24 L19,24 L19,22 L18,22 L18,21 L17,21 L17,20 L16,20 L16,19 L15,19 L15,18 L14,18 L14,17 L13,17 L13,15 L12,15 L12,14 L11,14 L11,13 L10,13 L10,12 L9,12 L9,11 L8,11 L8,9 L7,9 L7,8 L6,8 L6,7 L5,7 L5,6 L4,6 L4,5 L3,5 L3,3 L2,3 L2,2 L1,2 L1,1 L0,1 Z " fill="#0404EF" transform="translate(267,69)"/>
<path d="M0,0 L1,0 L1,2 L0,2 L0,4 L-1,4 L-1,7 L-2,7 L-2,8 L-3,8 L-3,9 L-6,9 L-6,11 L-7,11 L-7,14 L-10,14 L-10,18 L-13,18 L-13,22 L-15,22 L-15,24 L-16,24 L-16,25 L-17,25 L-17,26 L-19,26 L-19,28 L-21,28 L-21,30 L-23,30 L-23,31 L-24,31 L-24,32 L145,32 L145,28 L144,28 L144,27 L143,27 L143,25 L142,25 L142,23 L143,23 L143,24 L144,24 L144,25 L145,25 L145,26 L146,26 L146,27 L147,27 L147,29 L148,29 L148,30 L149,30 L149,31 L150,31 L150,32 L151,32 L151,34 L-26,34 L-26,33 L-27,33 L-27,32 L-26,32 L-26,31 L-25,31 L-25,30 L-24,30 L-24,29 L-23,29 L-23,28 L-22,28 L-22,26 L-21,26 L-21,25 L-20,25 L-20,24 L-19,24 L-19,23 L-18,23 L-18,22 L-17,22 L-17,20 L-16,20 L-16,19 L-15,19 L-15,18 L-14,18 L-14,17 L-13,17 L-13,16 L-12,16 L-12,15 L-11,15 L-11,13 L-10,13 L-10,12 L-9,12 L-9,11 L-8,11 L-8,10 L-7,10 L-7,8 L-6,8 L-6,7 L-5,7 L-5,6 L-4,6 L-4,5 L-3,5 L-3,4 L-2,4 L-2,3 L-1,3 L-1,1 L0,1 Z " fill="#4849CE" transform="translate(194,153)"/>
<path d="M0,0 L1,0 L1,1 L2,1 L2,3 L3,3 L3,4 L4,4 L4,5 L5,5 L5,7 L6,7 L6,8 L7,8 L7,9 L8,9 L8,10 L9,10 L9,12 L10,12 L10,13 L11,13 L11,14 L12,14 L12,15 L13,15 L13,17 L11,17 L11,18 L-100,18 L-100,17 L-106,17 L-106,18 L-107,18 L-107,14 L-106,14 L-106,11 L-105,11 L-105,9 L-104,9 L-104,5 L-103,5 L-103,13 L-104,13 L-104,15 L-95,15 L-95,16 L-34,16 L-34,15 L7,15 L7,11 L5,11 L5,10 L3,10 L3,8 L2,8 L2,4 L1,4 L1,2 L0,2 Z " fill="#4041D0" transform="translate(476,169)"/>
<path d="M0,0 L1,0 L1,4 L2,4 L2,6 L3,6 L3,10 L4,10 L4,13 L5,13 L5,16 L6,16 L6,19 L7,19 L7,22 L8,22 L8,24 L-1,24 L-1,25 L-112,25 L-112,22 L-111,22 L-111,21 L-110,21 L-110,20 L-109,20 L-109,18 L-108,18 L-108,17 L-107,17 L-107,16 L-106,16 L-106,20 L-108,20 L-108,21 L-109,21 L-109,22 L-110,22 L-110,23 L5,23 L5,19 L4,19 L4,16 L3,16 L3,12 L2,12 L2,8 L0,8 Z " fill="#4B4CCE" transform="translate(135,162)"/>
</svg>
